<?xml version="1.0" standalone="no"?>
<!DOCTYPE svg PUBLIC "-//W3C//DTD SVG 20010904//EN"
 "http://www.w3.org/TR/2001/REC-SVG-20010904/DTD/svg10.dtd">
<svg version="1.0" xmlns="http://www.w3.org/2000/svg"
 width="2048.000000pt" height="2048.000000pt" viewBox="0 0 2048.000000 2048.000000"
 preserveAspectRatio="xMidYMid meet">
<metadata>
Created by potrace 1.15, written by Peter Selinger 2001-2017
</metadata>
<g transform="translate(0.000000,2048.000000) scale(0.100000,-0.100000)"
fill="#c8463e" stroke="none">
<path d="M5785 19525 c-60 -13 -130 -30 -155 -39 -73 -27 -187 -54 -317 -75
-136 -22 -194 -46 -262 -110 -24 -23 -92 -66 -151 -96 -59 -30 -118 -66 -131
-80 -13 -15 -56 -48 -95 -75 -64 -44 -75 -57 -114 -131 -24 -46 -62 -104 -85
-129 -24 -25 -68 -95 -99 -157 -30 -61 -69 -127 -84 -145 -57 -64 -69 -103
-87 -273 -9 -88 -29 -225 -43 -305 l-27 -145 -2 -7530 -3 -7530 24 -135 c14
-74 30 -178 35 -230 6 -52 15 -133 20 -180 14 -123 45 -209 98 -271 24 -29 64
-91 88 -138 24 -47 59 -102 78 -122 19 -20 49 -65 68 -100 21 -40 64 -95 116
-147 66 -67 97 -89 160 -118 43 -20 98 -55 124 -79 26 -24 74 -57 107 -74 34
-17 89 -49 123 -71 114 -74 201 -95 527 -132 239 -26 253 -26 467 -4 344 35
464 62 549 126 28 21 83 55 121 76 39 20 90 56 115 80 25 23 79 59 120 79 94
47 224 170 269 255 17 32 51 80 75 106 24 27 60 82 81 123 20 41 59 97 86 126
65 69 86 131 110 335 23 195 43 310 71 405 21 70 21 82 30 2100 4 1117 11
2226 15 2465 l8 435 34 73 c25 52 45 81 70 98 35 23 41 24 233 24 208 0 284
-8 573 -60 360 -66 483 -100 565 -156 26 -18 76 -47 111 -64 86 -44 134 -77
218 -154 39 -36 94 -81 123 -101 30 -19 73 -62 98 -96 24 -33 65 -78 92 -100
26 -22 78 -84 114 -137 37 -53 88 -116 114 -139 28 -25 62 -71 85 -115 21 -40
58 -93 82 -119 24 -25 61 -82 82 -125 21 -44 66 -110 100 -149 34 -38 80 -106
103 -150 22 -44 58 -98 78 -121 21 -22 58 -81 84 -130 25 -49 71 -116 102
-149 32 -36 72 -94 96 -145 23 -47 61 -106 85 -131 24 -25 61 -82 82 -126 23
-47 65 -109 101 -149 34 -38 79 -105 101 -149 22 -45 59 -101 81 -125 22 -25
59 -83 84 -130 24 -47 71 -116 104 -153 33 -38 79 -105 101 -149 22 -44 57
-98 78 -121 21 -23 57 -78 80 -122 22 -45 68 -111 101 -149 34 -37 79 -104
102 -149 22 -45 59 -102 82 -127 23 -25 61 -83 84 -130 25 -51 67 -114 107
-159 39 -45 79 -104 101 -150 19 -42 53 -94 73 -116 21 -22 58 -78 82 -124 24
-46 70 -113 101 -148 33 -36 77 -101 102 -151 25 -48 62 -105 83 -128 21 -23
58 -81 82 -129 28 -54 69 -113 106 -155 40 -43 75 -95 99 -146 21 -43 55 -97
75 -119 21 -22 58 -78 82 -124 26 -49 72 -115 111 -158 37 -41 80 -100 95
-131 15 -31 51 -83 80 -114 29 -31 63 -79 77 -107 30 -58 199 -234 266 -277
25 -15 70 -51 100 -79 33 -31 75 -59 105 -70 91 -32 177 -75 227 -111 84 -62
122 -71 379 -90 296 -22 326 -22 544 -1 283 28 355 41 421 74 284 144 343 176
379 207 23 18 84 55 135 81 74 37 113 66 185 134 49 48 104 97 121 109 18 12
61 71 102 140 39 65 78 125 87 132 34 28 65 113 100 267 19 87 41 176 49 198
14 40 30 158 41 317 6 76 4 95 -19 162 -29 88 -59 238 -76 381 -15 132 -42
213 -95 283 -53 70 -77 120 -100 197 -23 79 -50 131 -97 185 -22 25 -60 88
-85 140 -26 54 -64 115 -88 141 -24 26 -56 71 -71 100 -38 76 -79 135 -136
197 -27 29 -63 81 -79 117 -16 35 -49 87 -73 114 -24 27 -63 86 -86 130 -23
44 -70 113 -106 153 -35 40 -83 108 -105 152 -23 43 -59 97 -81 119 -22 23
-55 73 -73 112 -19 39 -62 103 -99 145 -36 41 -84 110 -107 153 -22 43 -61
101 -85 128 -24 27 -60 82 -78 122 -19 40 -56 95 -81 122 -56 59 -93 112 -130
185 -15 30 -46 75 -70 100 -23 25 -63 87 -89 138 -26 50 -62 104 -80 120 -37
32 -77 88 -125 177 -19 33 -54 82 -78 108 -24 26 -60 81 -78 122 -20 44 -56
98 -87 132 -29 32 -77 100 -107 151 -30 51 -75 114 -99 139 -24 26 -62 83 -84
127 -22 43 -61 102 -87 130 -26 28 -67 84 -90 125 -24 41 -74 106 -110 146
-36 39 -79 96 -95 126 -16 29 -53 77 -82 106 -29 28 -64 74 -78 102 -14 27
-54 79 -88 114 -35 35 -78 82 -96 105 -19 24 -59 61 -89 84 -31 23 -69 56 -85
74 -16 18 -62 49 -103 69 -40 20 -98 60 -128 88 -30 29 -101 78 -158 109 -57
31 -126 73 -154 93 -33 24 -92 49 -178 77 -73 23 -141 51 -157 65 -28 23 -28
25 -15 62 55 157 112 203 292 236 119 22 174 40 224 77 52 38 137 76 247 113
45 15 104 42 130 61 68 49 145 87 246 123 51 18 116 50 150 75 34 24 104 65
156 91 55 28 116 68 146 96 29 26 83 63 120 80 43 21 88 52 119 84 27 29 90
76 139 105 84 50 128 89 331 290 44 43 99 92 122 109 23 17 60 54 81 84 22 29
65 71 97 92 34 24 73 63 96 97 22 31 60 74 85 95 26 22 70 78 105 136 34 54
85 123 115 153 33 32 67 80 86 120 18 37 51 86 75 111 29 29 61 81 97 157 29
62 71 136 94 164 23 30 50 80 62 119 36 107 76 190 125 255 49 66 60 97 104
298 16 74 36 153 44 175 8 22 28 76 45 120 40 106 67 272 97 600 28 301 40
397 61 500 8 38 19 114 25 168 9 89 7 113 -20 280 -37 224 -47 312 -66 592
-37 550 -45 600 -110 730 -50 100 -71 170 -100 321 -33 169 -45 209 -99 325
-24 52 -61 145 -81 208 -28 86 -47 125 -79 164 -55 68 -87 125 -121 215 -16
43 -47 98 -74 132 -27 33 -66 103 -94 166 -32 73 -64 128 -98 168 -27 32 -58
75 -69 95 -19 38 -63 83 -118 120 -18 13 -48 47 -67 76 -18 29 -59 72 -89 94
-30 22 -71 65 -91 95 -20 30 -58 71 -84 89 -26 19 -68 61 -92 93 -25 32 -65
73 -89 91 -25 18 -67 52 -94 75 -27 23 -87 61 -135 84 -53 25 -107 61 -141 93
-35 34 -89 69 -150 99 -52 25 -115 65 -140 88 -25 23 -83 60 -131 83 -47 23
-107 60 -134 82 -67 55 -105 73 -227 107 -121 34 -180 59 -242 101 -42 29
-130 61 -302 110 -39 12 -96 38 -125 58 -81 56 -160 80 -387 117 -128 21 -250
48 -317 70 -156 50 -220 63 -416 86 -96 11 -244 29 -329 40 -327 43 -807 91
-1100 110 -289 19 -408 20 -2305 19 l-2000 0 -110 -24z m3499 -2951 c264 -19
494 -47 656 -78 69 -13 193 -32 275 -41 220 -24 309 -41 362 -69 125 -67 176
-87 278 -110 153 -34 202 -52 260 -96 28 -21 97 -60 155 -87 66 -31 127 -68
164 -101 32 -28 97 -70 143 -93 68 -33 92 -51 123 -93 21 -28 54 -60 72 -70
18 -10 70 -55 114 -100 45 -45 98 -96 119 -115 21 -19 50 -62 66 -99 16 -35
51 -88 77 -116 27 -31 67 -94 95 -152 27 -54 69 -138 93 -185 24 -48 53 -124
63 -170 22 -93 63 -351 87 -541 8 -68 28 -197 43 -288 16 -91 27 -181 24 -200
-2 -19 -17 -116 -33 -215 -16 -99 -38 -245 -50 -325 -24 -166 -63 -362 -87
-435 -8 -27 -30 -77 -49 -110 -18 -33 -45 -94 -59 -135 -35 -96 -76 -170 -133
-233 -25 -28 -60 -85 -79 -127 -38 -82 -153 -218 -299 -351 -21 -20 -59 -59
-83 -88 -24 -28 -57 -59 -75 -68 -17 -8 -52 -35 -77 -59 -26 -23 -83 -61 -127
-83 -44 -22 -106 -63 -138 -92 -71 -61 -118 -90 -223 -134 -44 -19 -99 -48
-122 -65 -57 -41 -114 -66 -224 -96 -49 -14 -139 -50 -200 -79 -120 -59 -181
-74 -400 -100 -71 -9 -184 -27 -250 -40 -360 -73 -876 -109 -1480 -104 -489 5
-461 -2 -517 127 l-33 77 0 2675 0 2675 38 80 c21 45 48 88 60 95 18 12 89 16
367 20 681 11 793 10 1004 -6z"/>
</g>
</svg>
