<?xml version="1.0" standalone="no"?>
<!DOCTYPE svg PUBLIC "-//W3C//DTD SVG 20010904//EN"
 "http://www.w3.org/TR/2001/REC-SVG-20010904/DTD/svg10.dtd">
<svg version="1.0" xmlns="http://www.w3.org/2000/svg"
 width="700.000000pt" height="700.000000pt" viewBox="0 0 700.000000 700.000000"
 preserveAspectRatio="xMidYMid meet">
<metadata>
Created by potrace 1.11, written by Peter Selinger 2001-2013
</metadata>
<g transform="translate(0.000000,700.000000) scale(0.100000,-0.100000)"
fill="#000000" stroke="none">
<path d="M1935 6663 c-49 -13 -106 -25 -125 -29 -34 -6 -173 -87 -218 -128
-25 -23 -137 -200 -145 -231 -3 -11 -9 -40 -13 -65 -3 -25 -9 -61 -12 -80 -8
-57 -8 -5220 1 -5280 4 -30 10 -73 13 -95 7 -53 41 -123 104 -213 38 -54 71
-85 123 -121 87 -58 145 -88 183 -96 111 -20 195 -24 277 -13 145 19 142 18
263 100 78 53 111 89 184 197 41 61 53 97 65 193 3 20 9 56 14 80 6 24 12 405
15 881 6 908 5 889 60 903 29 7 171 -1 251 -15 182 -32 284 -88 410 -224 61
-67 214 -275 260 -354 9 -16 373 -564 796 -1199 280 -421 298 -442 457 -524
67 -35 91 -39 222 -42 180 -4 248 13 385 95 96 57 148 101 188 161 47 69 52
80 70 161 29 123 29 162 3 281 -38 180 -63 222 -509 879 -64 94 -164 242 -223
330 -60 88 -135 198 -168 245 -128 183 -180 255 -186 260 -3 3 -18 23 -35 45
-47 64 -125 144 -164 167 -20 12 -38 25 -41 28 -13 16 -119 77 -173 101 -53
23 -62 30 -59 50 3 33 44 67 90 75 49 9 349 153 437 211 78 51 189 134 221
167 12 11 59 57 104 101 118 114 247 292 313 431 12 27 31 65 42 84 10 19 20
44 22 55 2 11 16 65 33 120 16 55 32 129 35 165 6 73 11 114 22 180 9 58 9
201 0 265 -10 65 -14 109 -22 225 -4 54 -15 119 -27 150 -19 53 -35 108 -44
158 -9 44 -64 172 -112 259 -118 211 -105 193 -239 332 -73 77 -135 131 -203
175 -159 105 -252 160 -300 178 -73 27 -172 67 -218 88 -24 11 -105 34 -180
51 -181 40 -190 42 -297 54 -27 3 -63 7 -80 9 -16 2 -61 7 -100 11 -38 4 -83
9 -100 11 -90 11 -377 16 -945 17 -626 2 -636 2 -725 -20z m1340 -1006 c18 -4
96 -16 153 -23 81 -9 172 -28 200 -40 18 -9 56 -22 85 -31 64 -19 106 -40 200
-100 191 -123 319 -309 341 -499 2 -22 7 -56 10 -75 27 -160 28 -175 12 -276
-29 -180 -43 -238 -72 -303 -103 -231 -302 -403 -594 -515 -78 -30 -228 -59
-410 -80 -75 -9 -427 -15 -468 -8 -65 11 -62 -35 -62 978 0 844 1 919 17 946
9 15 24 30 32 32 23 6 532 0 556 -6z"/>
</g>
</svg>
