<?xml version="1.0" standalone="no"?>
<!DOCTYPE svg PUBLIC "-//W3C//DTD SVG 1.1//EN" "http://www.w3.org/Graphics/SVG/1.1/DTD/svg11.dtd" >
<svg xmlns="http://www.w3.org/2000/svg" xmlns:xlink="http://www.w3.org/1999/xlink" version="1.1" viewBox="0 0 2048 2048">
  <g transform="matrix(1 0 0 -1 0 2048)">
   <path fill="#333"
d="M1024 2048c564 0 1024 -460 1024 -1024c0 -476 -327 -879 -768 -993v268c0 83 -21 201 -107 268c275 42 491 203 491 457c0 104 -43 209 -119 294c22 97 34 216 -9 303c-109 -9 -216 -64 -296 -113c-67 16 -138 28 -216 28s-149 -12 -216 -28c-80 49 -187 104 -296 113
c-43 -87 -33 -206 -9 -303c-76 -85 -119 -190 -119 -294c0 -254 216 -415 491 -457c-41 -31 -67 -74 -83 -117c-214 -4 -387 166 -389 166c-10 10 -24 12 -33 5c-12 -7 -17 -21 -14 -33c4 -10 90 -254 412 -351v-206c-441 114 -768 517 -768 993c0 564 457 1024 1024 1024z
" />
  </g>

</svg>
