<?xml version="1.0" standalone="no"?>
<!DOCTYPE svg PUBLIC "-//W3C//DTD SVG 20010904//EN"
 "http://www.w3.org/TR/2001/REC-SVG-20010904/DTD/svg10.dtd">
<svg version="1.0" xmlns="http://www.w3.org/2000/svg"
 width="2048.000000pt" height="2048.000000pt" viewBox="0 0 2048.000000 2048.000000"
 preserveAspectRatio="xMidYMid meet">
<metadata>
Created by potrace 1.15, written by Peter Selinger 2001-2017
</metadata>
<g transform="translate(0.000000,2048.000000) scale(0.100000,-0.100000)"
fill="#333333" stroke="none">
<path d="M9330 20469 c-821 -75 -1527 -219 -2295 -469 -1114 -361 -2148 -912
-3103 -1652 -370 -286 -624 -511 -957 -843 -413 -412 -748 -803 -1055 -1231
-30 -42 -71 -97 -89 -123 -76 -101 -295 -437 -408 -626 -206 -344 -293 -508
-492 -920 -68 -140 -151 -325 -174 -385 -14 -36 -54 -137 -89 -225 -275 -680
-503 -1533 -607 -2270 -64 -447 -62 -403 -58 -1545 l3 -1045 27 -195 c222
-1610 733 -2993 1596 -4323 129 -199 355 -511 510 -707 50 -63 94 -119 98
-125 5 -5 71 -83 148 -173 77 -90 152 -179 167 -198 15 -19 38 -44 53 -56 14
-11 43 -43 65 -72 82 -110 610 -623 840 -816 743 -625 1318 -1010 2095 -1405
343 -174 592 -284 955 -421 124 -47 252 -96 285 -109 33 -12 146 -50 250 -83
571 -182 1174 -318 1727 -391 442 -58 384 -56 1423 -56 947 0 974 1 1155 23
672 82 1226 198 1838 383 324 98 864 298 1107 408 22 10 117 53 210 96 508
230 1208 639 1650 962 55 41 138 102 185 136 543 398 1194 1011 1681 1582 451
530 842 1099 1201 1750 31 56 297 590 321 645 133 301 197 458 294 720 102
274 128 356 214 653 188 657 276 1109 356 1837 16 146 18 263 18 1040 0 969 0
967 -75 1495 -146 1024 -449 2010 -917 2985 -66 137 -140 280 -283 540 -154
281 -467 764 -688 1060 -209 280 -320 417 -553 684 -58 67 -114 132 -125 145
-24 31 -367 382 -449 459 -33 32 -91 89 -131 127 -233 229 -774 670 -1115 908
-30 21 -74 52 -99 69 -171 121 -576 371 -810 500 -184 101 -558 298 -566 298
-3 0 -100 43 -215 95 -1050 477 -2148 761 -3339 865 -139 12 -1644 11 -1780
-1z m-2787 -4424 c258 -39 489 -137 657 -278 191 -161 304 -319 380 -532 120
-340 93 -681 -79 -990 -176 -315 -479 -531 -862 -613 -332 -72 -682 -38 -964
93 -33 15 -105 57 -160 94 -244 161 -423 409 -497 686 -31 115 -32 128 -32
315 -1 210 7 263 60 412 127 353 408 615 801 749 76 25 250 63 333 72 89 10
274 6 363 -8z m7237 -3385 c272 -30 501 -74 685 -131 312 -97 614 -259 839
-450 48 -41 110 -92 137 -115 28 -22 68 -63 91 -90 22 -27 44 -51 49 -54 28
-18 231 -300 278 -385 12 -22 31 -56 43 -75 151 -250 296 -683 363 -1083 63
-377 58 -189 62 -2749 l4 -2338 -1196 0 -1195 0 0 2078 c0 1268 -4 2114 -10
2172 -31 302 -128 650 -230 822 -85 144 -225 296 -347 381 -114 78 -258 134
-458 178 -39 9 -130 14 -260 13 -169 0 -216 -3 -303 -22 -257 -56 -460 -163
-629 -332 -144 -143 -260 -318 -362 -546 -82 -182 -74 39 -80 -2449 l-6 -2220
-1197 -3 -1198 -2 0 3635 0 3635 1200 0 1200 0 0 -520 0 -520 25 -6 c33 -8 44
2 112 100 139 199 304 379 478 526 370 310 741 470 1255 539 47 6 96 13 110
15 56 8 461 5 540 -4z m-6270 -3765 l0 -3635 -1197 2 -1198 3 -3 3620 c-1
1991 0 3626 3 3633 3 9 253 12 1200 12 l1195 0 0 -3635z"/>
</g>
</svg>
