<?xml version="1.0" standalone="no"?>
<!DOCTYPE svg PUBLIC "-//W3C//DTD SVG 20010904//EN"
 "http://www.w3.org/TR/2001/REC-SVG-20010904/DTD/svg10.dtd">
<svg version="1.0" xmlns="http://www.w3.org/2000/svg"
 width="1286.000000pt" height="179.000000pt" viewBox="0 0 1286.000000 179.000000"
 preserveAspectRatio="xMidYMid meet">
<metadata>
Created by potrace 1.15, written by Peter Selinger 2001-2017
</metadata>
<g transform="translate(0.000000,179.000000) scale(0.100000,-0.100000)"
fill="#c8463e" stroke="none">
<path d="M3278 1688 l-58 -10 0 -608 c0 -520 2 -614 15 -651 30 -83 98 -129
206 -137 75 -5 71 -9 85 94 l6 51 -38 6 c-54 9 -81 31 -94 75 -6 23 -10 248
-10 615 l0 577 -27 -1 c-16 -1 -54 -6 -85 -11z"/>
<path d="M11408 1591 c-28 -25 -32 -34 -32 -81 0 -47 4 -56 32 -81 26 -23 41
-29 80 -29 70 1 112 42 112 110 0 68 -42 109 -112 110 -39 0 -54 -6 -80 -29z"/>
<path d="M4332 1564 c-71 -19 -106 -38 -159 -87 -53 -49 -77 -92 -93 -171 -24
-116 12 -240 91 -311 44 -40 146 -90 299 -149 168 -65 230 -130 230 -239 0
-67 -27 -112 -90 -147 -39 -22 -60 -25 -161 -28 -126 -4 -201 9 -297 53 l-53
24 -10 -27 c-6 -15 -19 -50 -29 -79 l-18 -52 61 -24 c103 -41 196 -57 326 -57
140 0 203 11 288 51 135 64 202 207 173 369 -30 164 -106 234 -367 336 -152
59 -213 96 -237 143 -47 90 -18 177 74 224 53 27 59 28 170 24 97 -3 126 -8
183 -31 38 -16 72 -24 76 -20 12 14 51 115 51 131 0 19 -74 51 -158 68 -86 19
-281 18 -350 -1z"/>
<path d="M255 1555 c-5 -2 -36 -6 -67 -10 l-58 -6 0 -620 0 -619 90 0 90 0 0
245 0 245 124 0 124 0 59 -77 c74 -96 172 -244 225 -340 l40 -73 100 0 c98 0
99 0 92 23 -17 56 -151 275 -252 410 -35 48 -63 89 -61 90 2 1 30 15 62 31
148 74 216 237 173 417 -34 145 -140 236 -323 274 -61 13 -387 21 -418 10z
m425 -181 c91 -42 132 -108 132 -211 -1 -112 -55 -180 -167 -207 -33 -8 -122
-18 -197 -21 l-138 -7 0 237 0 237 163 -4 c137 -3 169 -7 207 -24z"/>
<path d="M7545 1528 c-16 -73 -68 -750 -81 -1065 l-7 -163 90 0 89 0 13 283
c14 332 30 581 40 620 6 26 15 11 89 -140 45 -92 124 -262 175 -378 l94 -210
78 0 78 0 59 135 c77 174 245 533 274 584 l22 39 6 -44 c10 -73 25 -318 37
-611 l12 -278 90 0 90 0 -7 147 c-13 288 -66 978 -81 1071 l-6 32 -82 0 -83 0
-66 -122 c-70 -131 -175 -352 -278 -586 -35 -78 -65 -141 -66 -139 -2 2 -33
70 -70 153 -109 246 -203 442 -273 571 l-66 123 -82 0 c-78 0 -83 -1 -88 -22z"/>
<path d="M10728 1518 l-58 -10 0 -467 c0 -499 4 -553 47 -634 50 -92 128 -127
282 -127 60 0 118 6 152 16 91 27 89 24 72 96 -7 35 -16 68 -18 75 -3 8 -18 6
-55 -8 -34 -13 -75 -19 -130 -19 -74 0 -82 2 -113 30 -52 45 -57 78 -57 369
l0 261 175 0 175 0 0 70 0 70 -175 0 -175 0 0 145 0 145 -32 -1 c-18 -1 -59
-6 -90 -11z"/>
<path d="M1351 1244 c-36 -8 -66 -16 -69 -18 -4 -5 14 -136 20 -141 2 -2 30 3
63 11 33 7 103 14 155 14 80 0 101 -4 135 -23 53 -30 84 -88 92 -170 l6 -65
-44 10 c-24 5 -98 8 -164 5 -138 -5 -206 -25 -272 -82 -63 -54 -88 -113 -87
-210 0 -148 63 -236 197 -277 63 -19 86 -20 241 -15 94 3 199 11 234 17 l62
12 0 329 c0 404 -9 457 -92 536 -65 62 -116 77 -273 80 -93 1 -161 -3 -204
-13z m368 -530 l31 -6 0 -134 c0 -73 -4 -135 -9 -138 -5 -4 -63 -6 -130 -7
-99 0 -128 3 -165 19 -58 26 -81 62 -81 128 0 61 24 95 90 125 41 19 195 27
264 13z"/>
<path d="M5191 1244 c-36 -8 -66 -16 -69 -18 -4 -5 14 -136 20 -141 2 -2 30 3
63 11 33 7 103 14 155 14 80 0 101 -4 135 -23 53 -30 84 -88 92 -170 l6 -65
-44 10 c-24 5 -98 8 -164 5 -138 -5 -206 -25 -272 -82 -63 -54 -88 -113 -87
-210 0 -148 63 -236 197 -277 63 -19 86 -20 241 -15 94 3 199 11 234 17 l62
12 0 329 c0 404 -9 457 -92 536 -65 62 -116 77 -273 80 -93 1 -161 -3 -204
-13z m368 -530 l31 -6 0 -134 c0 -73 -4 -135 -9 -138 -5 -4 -63 -6 -130 -7
-99 0 -128 3 -165 19 -58 26 -81 62 -81 128 0 61 24 95 90 125 41 19 195 27
264 13z"/>
<path d="M6189 1250 c-25 -4 -71 -13 -102 -20 l-57 -11 0 -460 0 -459 90 0 90
0 0 394 0 394 31 6 c17 3 75 6 128 6 80 0 104 -4 141 -22 94 -48 110 -122 110
-510 l0 -268 85 0 85 0 0 320 c0 198 -4 339 -11 372 -25 116 -82 192 -178 237
-52 24 -67 26 -211 28 -85 1 -176 -2 -201 -7z"/>
<path d="M9151 1244 c-36 -8 -66 -16 -69 -18 -4 -5 14 -136 20 -141 2 -2 30 3
63 11 33 7 103 14 155 14 80 0 101 -4 135 -23 53 -30 84 -88 92 -170 l6 -65
-44 10 c-24 5 -98 8 -164 5 -138 -5 -206 -25 -272 -82 -63 -54 -88 -113 -87
-210 0 -148 63 -236 197 -277 63 -19 86 -20 241 -15 94 3 199 11 234 17 l62
12 0 329 c0 404 -9 457 -92 536 -65 62 -116 77 -273 80 -93 1 -161 -3 -204
-13z m368 -530 l31 -6 0 -134 c0 -73 -4 -135 -9 -138 -5 -4 -63 -6 -130 -7
-99 0 -128 3 -165 19 -58 26 -81 62 -81 128 0 61 24 95 90 125 41 19 195 27
264 13z"/>
<path d="M10170 1253 c-14 -2 -60 -13 -102 -25 l-78 -20 0 -454 0 -454 90 0
90 0 0 390 c0 363 1 391 18 398 19 8 229 9 281 2 l35 -5 12 60 c20 93 20 92
-36 104 -49 10 -257 13 -310 4z"/>
<path d="M12019 1250 c-25 -4 -71 -13 -102 -20 l-57 -11 0 -460 0 -459 90 0
90 0 0 394 0 394 31 6 c17 3 75 6 128 6 80 0 104 -4 141 -22 94 -48 110 -122
110 -510 l0 -268 85 0 85 0 0 320 c0 198 -4 339 -11 372 -25 116 -82 192 -178
237 -52 24 -67 26 -211 28 -85 1 -176 -2 -201 -7z"/>
<path d="M2180 929 c0 -348 7 -407 63 -500 37 -62 103 -111 180 -134 76 -22
281 -20 409 5 57 11 104 20 106 20 1 0 2 207 2 460 l0 460 -85 0 -85 0 0 -394
0 -394 -31 -6 c-17 -3 -75 -6 -128 -6 -112 0 -170 22 -208 78 -37 56 -43 118
-43 427 l0 295 -90 0 -90 0 0 -311z"/>
<path d="M11400 770 l0 -470 90 0 90 0 0 470 0 470 -90 0 -90 0 0 -470z"/>
</g>
</svg>
